<?xml version="1.0" encoding="UTF-8" standalone="no"?>
<!DOCTYPE svg PUBLIC "-//W3C//DTD SVG 1.1//EN"
"http://www.w3.org/Graphics/SVG/1.1/DTD/svg11.dtd">
<svg viewBox="0 0 550 977" version="1.1" xmlns="http://www.w3.org/2000/svg" xmlns:xlink="http://www.w3.org/1999/xlink">
<defs>
<style type="text/css"><![CDATA[
.g1_9{
}
.g2_9{
fill: #FFFFFF;
}
.g3_9{
fill: none;
stroke: #707070;
stroke-width: 1.5277778;
stroke-linecap: butt;
stroke-linejoin: miter;
}
.g4_9{
fill: none;
stroke: #FFFFFF;
stroke-width: 1.5277778;
stroke-linecap: butt;
stroke-linejoin: miter;
}
]]></style>
</defs>
<path d="M0,0L550,0l0,977.8l-550,0L0,0Z" class="g1_9" />
<image preserveAspectRatio="none" x="0" y="0" width="550" height="978" xlink:href="img/1.png" />
<image preserveAspectRatio="none" x="422" y="153" width="101" height="101" xlink:href="img/2.png" />
<image preserveAspectRatio="none" x="463" y="151" width="87" height="104" xlink:href="img/3.png" />
<path d="M100.1,194c0,4,-0.8,7.8,-2.3,11.4c-1.5,3.7,-3.7,6.9,-6.5,9.7c-2.7,2.8,-6,4.9,-9.6,6.5c-3.7,1.5,-7.5,2.2,-11.4,2.2c-4,0,-7.8,-0.7,-11.4,-2.2C55.2,220,52,217.9,49.2,215.1c-2.8,-2.8,-4.9,-6,-6.4,-9.7C41.2,201.8,40.5,198,40.5,194c0,-3.9,0.7,-7.7,2.3,-11.4c1.5,-3.6,3.6,-6.8,6.4,-9.6c2.8,-2.8,6,-5,9.7,-6.5c3.6,-1.5,7.4,-2.3,11.4,-2.3c3.9,0,7.7,0.8,11.4,2.3c3.6,1.5,6.9,3.7,9.6,6.5c2.8,2.8,5,6,6.5,9.6c1.5,3.7,2.3,7.5,2.3,11.4Z" class="g2_9" />
<path d="M100.1,194c0,4,-0.8,7.8,-2.3,11.4c-1.5,3.7,-3.7,6.9,-6.5,9.7c-2.7,2.8,-6,4.9,-9.6,6.5c-3.7,1.5,-7.5,2.2,-11.4,2.2c-4,0,-7.8,-0.7,-11.4,-2.2C55.2,220,52,217.9,49.2,215.1c-2.8,-2.8,-4.9,-6,-6.4,-9.7C41.2,201.8,40.5,198,40.5,194c0,-3.9,0.7,-7.7,2.3,-11.4c1.5,-3.6,3.6,-6.8,6.4,-9.6c2.8,-2.8,6,-5,9.7,-6.5c3.6,-1.5,7.4,-2.3,11.4,-2.3c3.9,0,7.7,0.8,11.4,2.3c3.6,1.5,6.9,3.7,9.6,6.5c2.8,2.8,5,6,6.5,9.6c1.5,3.7,2.3,7.5,2.3,11.4Z" class="g3_9" />
<path d="M100.1,265.8c0,4,-0.8,7.8,-2.3,11.4c-1.5,3.7,-3.7,6.9,-6.5,9.7c-2.7,2.8,-6,4.9,-9.6,6.5c-3.7,1.5,-7.5,2.2,-11.4,2.2c-4,0,-7.8,-0.7,-11.4,-2.2c-3.7,-1.6,-6.9,-3.7,-9.7,-6.5c-2.8,-2.8,-4.9,-6,-6.4,-9.7c-1.6,-3.6,-2.3,-7.4,-2.3,-11.4c0,-3.9,0.7,-7.7,2.3,-11.4c1.5,-3.6,3.6,-6.8,6.4,-9.6c2.8,-2.8,6,-5,9.7,-6.5c3.6,-1.5,7.4,-2.3,11.4,-2.3c3.9,0,7.7,0.8,11.4,2.3c3.6,1.5,6.9,3.7,9.6,6.5c2.8,2.8,5,6,6.5,9.6c1.5,3.7,2.3,7.5,2.3,11.4Z" class="g2_9" />
<path d="M100.1,265.8c0,4,-0.8,7.8,-2.3,11.4c-1.5,3.7,-3.7,6.9,-6.5,9.7c-2.7,2.8,-6,4.9,-9.6,6.5c-3.7,1.5,-7.5,2.2,-11.4,2.2c-4,0,-7.8,-0.7,-11.4,-2.2c-3.7,-1.6,-6.9,-3.7,-9.7,-6.5c-2.8,-2.8,-4.9,-6,-6.4,-9.7c-1.6,-3.6,-2.3,-7.4,-2.3,-11.4c0,-3.9,0.7,-7.7,2.3,-11.4c1.5,-3.6,3.6,-6.8,6.4,-9.6c2.8,-2.8,6,-5,9.7,-6.5c3.6,-1.5,7.4,-2.3,11.4,-2.3c3.9,0,7.7,0.8,11.4,2.3c3.6,1.5,6.9,3.7,9.6,6.5c2.8,2.8,5,6,6.5,9.6c1.5,3.7,2.3,7.5,2.3,11.4Z" class="g3_9" />
<path d="M100.1,337.6c0,4,-0.8,7.8,-2.3,11.4c-1.5,3.7,-3.7,6.9,-6.5,9.7c-2.7,2.8,-6,5,-9.6,6.5c-3.7,1.5,-7.5,2.2,-11.4,2.2c-4,0,-7.8,-0.7,-11.4,-2.2c-3.7,-1.5,-6.9,-3.7,-9.7,-6.5c-2.8,-2.8,-4.9,-6,-6.4,-9.7c-1.6,-3.6,-2.3,-7.4,-2.3,-11.4c0,-3.9,0.7,-7.7,2.3,-11.4c1.5,-3.6,3.6,-6.8,6.4,-9.6c2.8,-2.8,6,-5,9.7,-6.5c3.6,-1.5,7.4,-2.3,11.4,-2.3c3.9,0,7.7,0.8,11.4,2.3c3.6,1.5,6.9,3.7,9.6,6.5c2.8,2.8,5,6,6.5,9.6c1.5,3.7,2.3,7.5,2.3,11.4Z" class="g2_9" />
<path d="M100.1,337.6c0,4,-0.8,7.8,-2.3,11.4c-1.5,3.7,-3.7,6.9,-6.5,9.7c-2.7,2.8,-6,5,-9.6,6.5c-3.7,1.5,-7.5,2.2,-11.4,2.2c-4,0,-7.8,-0.7,-11.4,-2.2c-3.7,-1.5,-6.9,-3.7,-9.7,-6.5c-2.8,-2.8,-4.9,-6,-6.4,-9.7c-1.6,-3.6,-2.3,-7.4,-2.3,-11.4c0,-3.9,0.7,-7.7,2.3,-11.4c1.5,-3.6,3.6,-6.8,6.4,-9.6c2.8,-2.8,6,-5,9.7,-6.5c3.6,-1.5,7.4,-2.3,11.4,-2.3c3.9,0,7.7,0.8,11.4,2.3c3.6,1.5,6.9,3.7,9.6,6.5c2.8,2.8,5,6,6.5,9.6c1.5,3.7,2.3,7.5,2.3,11.4Z" class="g3_9" />
<path d="M100.1,409.4c0,4,-0.8,7.8,-2.3,11.4c-1.5,3.7,-3.7,6.9,-6.5,9.7c-2.7,2.8,-6,5,-9.6,6.5c-3.7,1.5,-7.5,2.2,-11.4,2.2c-4,0,-7.8,-0.7,-11.4,-2.2c-3.7,-1.5,-6.9,-3.7,-9.7,-6.5c-2.8,-2.8,-4.9,-6,-6.4,-9.7c-1.6,-3.6,-2.3,-7.4,-2.3,-11.4c0,-3.9,0.7,-7.7,2.3,-11.4c1.5,-3.6,3.6,-6.8,6.4,-9.6c2.8,-2.8,6,-5,9.7,-6.5c3.6,-1.5,7.4,-2.2,11.4,-2.2c3.9,0,7.7,0.7,11.4,2.2c3.6,1.5,6.9,3.7,9.6,6.5c2.8,2.8,5,6,6.5,9.6c1.5,3.7,2.3,7.5,2.3,11.4Z" class="g2_9" />
<path d="M100.1,409.4c0,4,-0.8,7.8,-2.3,11.4c-1.5,3.7,-3.7,6.9,-6.5,9.7c-2.7,2.8,-6,5,-9.6,6.5c-3.7,1.5,-7.5,2.2,-11.4,2.2c-4,0,-7.8,-0.7,-11.4,-2.2c-3.7,-1.5,-6.9,-3.7,-9.7,-6.5c-2.8,-2.8,-4.9,-6,-6.4,-9.7c-1.6,-3.6,-2.3,-7.4,-2.3,-11.4c0,-3.9,0.7,-7.7,2.3,-11.4c1.5,-3.6,3.6,-6.8,6.4,-9.6c2.8,-2.8,6,-5,9.7,-6.5c3.6,-1.5,7.4,-2.2,11.4,-2.2c3.9,0,7.7,0.7,11.4,2.2c3.6,1.5,6.9,3.7,9.6,6.5c2.8,2.8,5,6,6.5,9.6c1.5,3.7,2.3,7.5,2.3,11.4Z" class="g3_9" />
<path d="M100.1,481.3c0,3.9,-0.8,7.7,-2.3,11.4c-1.5,3.6,-3.7,6.8,-6.5,9.6c-2.7,2.8,-6,5,-9.6,6.5C78,510.3,74.2,511,70.3,511c-4,0,-7.8,-0.7,-11.4,-2.2c-3.7,-1.5,-6.9,-3.7,-9.7,-6.5c-2.8,-2.8,-4.9,-6,-6.4,-9.6C41.2,489,40.5,485.2,40.5,481.3c0,-4,0.7,-7.8,2.3,-11.5c1.5,-3.6,3.6,-6.8,6.4,-9.6c2.8,-2.8,6,-5,9.7,-6.5c3.6,-1.5,7.4,-2.2,11.4,-2.2c3.9,0,7.7,0.7,11.4,2.2c3.6,1.5,6.9,3.7,9.6,6.5c2.8,2.8,5,6,6.5,9.6c1.5,3.7,2.3,7.5,2.3,11.5Z" class="g2_9" />
<path d="M100.1,481.3c0,3.9,-0.8,7.7,-2.3,11.4c-1.5,3.6,-3.7,6.8,-6.5,9.6c-2.7,2.8,-6,5,-9.6,6.5C78,510.3,74.2,511,70.3,511c-4,0,-7.8,-0.7,-11.4,-2.2c-3.7,-1.5,-6.9,-3.7,-9.7,-6.5c-2.8,-2.8,-4.9,-6,-6.4,-9.6C41.2,489,40.5,485.2,40.5,481.3c0,-4,0.7,-7.8,2.3,-11.5c1.5,-3.6,3.6,-6.8,6.4,-9.6c2.8,-2.8,6,-5,9.7,-6.5c3.6,-1.5,7.4,-2.2,11.4,-2.2c3.9,0,7.7,0.7,11.4,2.2c3.6,1.5,6.9,3.7,9.6,6.5c2.8,2.8,5,6,6.5,9.6c1.5,3.7,2.3,7.5,2.3,11.5Z" class="g3_9" />
<path d="M100.1,553.1c0,3.9,-0.8,7.7,-2.3,11.4c-1.5,3.6,-3.7,6.8,-6.5,9.6c-2.7,2.8,-6,5,-9.6,6.5c-3.7,1.5,-7.5,2.2,-11.4,2.2c-4,0,-7.8,-0.7,-11.4,-2.2c-3.7,-1.5,-6.9,-3.7,-9.7,-6.5c-2.8,-2.8,-4.9,-6,-6.4,-9.6C41.2,560.8,40.5,557,40.5,553.1c0,-4,0.7,-7.8,2.3,-11.4c1.5,-3.7,3.6,-6.9,6.4,-9.7c2.8,-2.8,6,-5,9.7,-6.5c3.6,-1.5,7.4,-2.2,11.4,-2.2c3.9,0,7.7,0.7,11.4,2.2c3.6,1.5,6.9,3.7,9.6,6.5c2.8,2.8,5,6,6.5,9.7c1.5,3.6,2.3,7.4,2.3,11.4Z" class="g2_9" />
<path d="M100.1,553.1c0,3.9,-0.8,7.7,-2.3,11.4c-1.5,3.6,-3.7,6.8,-6.5,9.6c-2.7,2.8,-6,5,-9.6,6.5c-3.7,1.5,-7.5,2.2,-11.4,2.2c-4,0,-7.8,-0.7,-11.4,-2.2c-3.7,-1.5,-6.9,-3.7,-9.7,-6.5c-2.8,-2.8,-4.9,-6,-6.4,-9.6C41.2,560.8,40.5,557,40.5,553.1c0,-4,0.7,-7.8,2.3,-11.4c1.5,-3.7,3.6,-6.9,6.4,-9.7c2.8,-2.8,6,-5,9.7,-6.5c3.6,-1.5,7.4,-2.2,11.4,-2.2c3.9,0,7.7,0.7,11.4,2.2c3.6,1.5,6.9,3.7,9.6,6.5c2.8,2.8,5,6,6.5,9.7c1.5,3.6,2.3,7.4,2.3,11.4Z" class="g3_9" />
<path d="M100.1,624.9c0,3.9,-0.8,7.7,-2.3,11.4c-1.5,3.6,-3.7,6.8,-6.5,9.6c-2.7,2.8,-6,5,-9.6,6.5c-3.7,1.5,-7.5,2.3,-11.4,2.3c-4,0,-7.8,-0.8,-11.4,-2.3c-3.7,-1.5,-6.9,-3.7,-9.7,-6.5c-2.8,-2.8,-4.9,-6,-6.4,-9.6c-1.6,-3.7,-2.3,-7.5,-2.3,-11.4c0,-4,0.7,-7.8,2.3,-11.4c1.5,-3.7,3.6,-6.9,6.4,-9.7c2.8,-2.8,6,-5,9.7,-6.5c3.6,-1.5,7.4,-2.2,11.4,-2.2c3.9,0,7.7,0.7,11.4,2.2c3.6,1.5,6.9,3.7,9.6,6.5c2.8,2.8,5,6,6.5,9.7c1.5,3.6,2.3,7.4,2.3,11.4Z" class="g2_9" />
<path d="M100.1,624.9c0,3.9,-0.8,7.7,-2.3,11.4c-1.5,3.6,-3.7,6.8,-6.5,9.6c-2.7,2.8,-6,5,-9.6,6.5c-3.7,1.5,-7.5,2.3,-11.4,2.3c-4,0,-7.8,-0.8,-11.4,-2.3c-3.7,-1.5,-6.9,-3.7,-9.7,-6.5c-2.8,-2.8,-4.9,-6,-6.4,-9.6c-1.6,-3.7,-2.3,-7.5,-2.3,-11.4c0,-4,0.7,-7.8,2.3,-11.4c1.5,-3.7,3.6,-6.9,6.4,-9.7c2.8,-2.8,6,-5,9.7,-6.5c3.6,-1.5,7.4,-2.2,11.4,-2.2c3.9,0,7.7,0.7,11.4,2.2c3.6,1.5,6.9,3.7,9.6,6.5c2.8,2.8,5,6,6.5,9.7c1.5,3.6,2.3,7.4,2.3,11.4Z" class="g3_9" />
<path d="M100.1,696.7c0,3.9,-0.8,7.7,-2.3,11.4c-1.5,3.6,-3.7,6.8,-6.5,9.6c-2.7,2.8,-6,5,-9.6,6.5c-3.7,1.5,-7.5,2.3,-11.4,2.3c-4,0,-7.8,-0.8,-11.4,-2.3c-3.7,-1.5,-6.9,-3.7,-9.7,-6.5c-2.8,-2.8,-4.9,-6,-6.4,-9.6c-1.6,-3.7,-2.3,-7.5,-2.3,-11.4c0,-4,0.7,-7.8,2.3,-11.4c1.5,-3.7,3.6,-6.9,6.4,-9.7c2.8,-2.8,6,-4.9,9.7,-6.5c3.6,-1.5,7.4,-2.2,11.4,-2.2c3.9,0,7.7,0.7,11.4,2.2c3.6,1.6,6.9,3.7,9.6,6.5c2.8,2.8,5,6,6.5,9.7c1.5,3.6,2.3,7.4,2.3,11.4Z" class="g2_9" />
<path d="M100.1,696.7c0,3.9,-0.8,7.7,-2.3,11.4c-1.5,3.6,-3.7,6.8,-6.5,9.6c-2.7,2.8,-6,5,-9.6,6.5c-3.7,1.5,-7.5,2.3,-11.4,2.3c-4,0,-7.8,-0.8,-11.4,-2.3c-3.7,-1.5,-6.9,-3.7,-9.7,-6.5c-2.8,-2.8,-4.9,-6,-6.4,-9.6c-1.6,-3.7,-2.3,-7.5,-2.3,-11.4c0,-4,0.7,-7.8,2.3,-11.4c1.5,-3.7,3.6,-6.9,6.4,-9.7c2.8,-2.8,6,-4.9,9.7,-6.5c3.6,-1.5,7.4,-2.2,11.4,-2.2c3.9,0,7.7,0.7,11.4,2.2c3.6,1.6,6.9,3.7,9.6,6.5c2.8,2.8,5,6,6.5,9.7c1.5,3.6,2.3,7.4,2.3,11.4Z" class="g3_9" />
<path d="M100.1,768.5c0,3.9,-0.8,7.7,-2.3,11.4c-1.5,3.6,-3.7,6.8,-6.5,9.6c-2.7,2.8,-6,5,-9.6,6.5c-3.7,1.5,-7.5,2.3,-11.4,2.3c-4,0,-7.8,-0.8,-11.4,-2.3c-3.7,-1.5,-6.9,-3.7,-9.7,-6.5c-2.8,-2.8,-4.9,-6,-6.4,-9.6c-1.6,-3.7,-2.3,-7.5,-2.3,-11.4c0,-4,0.7,-7.8,2.3,-11.4c1.5,-3.7,3.6,-6.9,6.4,-9.7c2.8,-2.8,6,-4.9,9.7,-6.5c3.6,-1.5,7.4,-2.2,11.4,-2.2c3.9,0,7.7,0.7,11.4,2.2c3.6,1.6,6.9,3.7,9.6,6.5c2.8,2.8,5,6,6.5,9.7c1.5,3.6,2.3,7.4,2.3,11.4Z" class="g2_9" />
<path d="M100.1,768.5c0,3.9,-0.8,7.7,-2.3,11.4c-1.5,3.6,-3.7,6.8,-6.5,9.6c-2.7,2.8,-6,5,-9.6,6.5c-3.7,1.5,-7.5,2.3,-11.4,2.3c-4,0,-7.8,-0.8,-11.4,-2.3c-3.7,-1.5,-6.9,-3.7,-9.7,-6.5c-2.8,-2.8,-4.9,-6,-6.4,-9.6c-1.6,-3.7,-2.3,-7.5,-2.3,-11.4c0,-4,0.7,-7.8,2.3,-11.4c1.5,-3.7,3.6,-6.9,6.4,-9.7c2.8,-2.8,6,-4.9,9.7,-6.5c3.6,-1.5,7.4,-2.2,11.4,-2.2c3.9,0,7.7,0.7,11.4,2.2c3.6,1.6,6.9,3.7,9.6,6.5c2.8,2.8,5,6,6.5,9.7c1.5,3.6,2.3,7.4,2.3,11.4Z" class="g3_9" />
<path d="M100.1,840.3c0,3.9,-0.8,7.7,-2.3,11.4c-1.5,3.6,-3.7,6.9,-6.5,9.6c-2.7,2.8,-6,5,-9.6,6.5c-3.7,1.5,-7.5,2.3,-11.4,2.3c-4,0,-7.8,-0.8,-11.4,-2.3c-3.7,-1.5,-6.9,-3.7,-9.7,-6.5c-2.8,-2.7,-4.9,-6,-6.4,-9.6C41.2,848,40.5,844.2,40.5,840.3c0,-4,0.7,-7.8,2.3,-11.4c1.5,-3.7,3.6,-6.9,6.4,-9.7c2.8,-2.8,6,-4.9,9.7,-6.4c3.6,-1.6,7.4,-2.3,11.4,-2.3c3.9,0,7.7,0.7,11.4,2.3c3.6,1.5,6.9,3.6,9.6,6.4c2.8,2.8,5,6,6.5,9.7c1.5,3.6,2.3,7.4,2.3,11.4Z" class="g2_9" />
<path d="M100.1,840.3c0,3.9,-0.8,7.7,-2.3,11.4c-1.5,3.6,-3.7,6.9,-6.5,9.6c-2.7,2.8,-6,5,-9.6,6.5c-3.7,1.5,-7.5,2.3,-11.4,2.3c-4,0,-7.8,-0.8,-11.4,-2.3c-3.7,-1.5,-6.9,-3.7,-9.7,-6.5c-2.8,-2.7,-4.9,-6,-6.4,-9.6C41.2,848,40.5,844.2,40.5,840.3c0,-4,0.7,-7.8,2.3,-11.4c1.5,-3.7,3.6,-6.9,6.4,-9.7c2.8,-2.8,6,-4.9,9.7,-6.4c3.6,-1.6,7.4,-2.3,11.4,-2.3c3.9,0,7.7,0.7,11.4,2.3c3.6,1.5,6.9,3.6,9.6,6.4c2.8,2.8,5,6,6.5,9.7c1.5,3.6,2.3,7.4,2.3,11.4Z" class="g3_9" />
<path d="M100.1,912.1c0,3.9,-0.8,7.7,-2.3,11.4c-1.5,3.6,-3.7,6.9,-6.5,9.6c-2.7,2.8,-6,5,-9.6,6.5c-3.7,1.5,-7.5,2.3,-11.4,2.3c-4,0,-7.8,-0.8,-11.4,-2.3c-3.7,-1.5,-6.9,-3.7,-9.7,-6.5c-2.8,-2.7,-4.9,-6,-6.4,-9.6C41.2,919.8,40.5,916,40.5,912.1c0,-4,0.7,-7.8,2.3,-11.4c1.5,-3.7,3.6,-6.9,6.4,-9.7c2.8,-2.8,6,-4.9,9.7,-6.4c3.6,-1.6,7.4,-2.3,11.4,-2.3c3.9,0,7.7,0.7,11.4,2.3c3.6,1.5,6.9,3.6,9.6,6.4c2.8,2.8,5,6,6.5,9.7c1.5,3.6,2.3,7.4,2.3,11.4Z" class="g2_9" />
<path d="M100.1,912.1c0,3.9,-0.8,7.7,-2.3,11.4c-1.5,3.6,-3.7,6.9,-6.5,9.6c-2.7,2.8,-6,5,-9.6,6.5c-3.7,1.5,-7.5,2.3,-11.4,2.3c-4,0,-7.8,-0.8,-11.4,-2.3c-3.7,-1.5,-6.9,-3.7,-9.7,-6.5c-2.8,-2.7,-4.9,-6,-6.4,-9.6C41.2,919.8,40.5,916,40.5,912.1c0,-4,0.7,-7.8,2.3,-11.4c1.5,-3.7,3.6,-6.9,6.4,-9.7c2.8,-2.8,6,-4.9,9.7,-6.4c3.6,-1.6,7.4,-2.3,11.4,-2.3c3.9,0,7.7,0.7,11.4,2.3c3.6,1.5,6.9,3.6,9.6,6.4c2.8,2.8,5,6,6.5,9.7c1.5,3.6,2.3,7.4,2.3,11.4Z" class="g3_9" />
<image preserveAspectRatio="none" x="422" y="225" width="101" height="100" xlink:href="img/4.png" />
<image preserveAspectRatio="none" x="463" y="223" width="87" height="104" xlink:href="img/5.png" />
<image preserveAspectRatio="none" x="422" y="296" width="101" height="101" xlink:href="img/6.png" />
<image preserveAspectRatio="none" x="463" y="295" width="87" height="104" xlink:href="img/7.png" />
<image preserveAspectRatio="none" x="422" y="368" width="101" height="101" xlink:href="img/8.png" />
<image preserveAspectRatio="none" x="463" y="367" width="87" height="104" xlink:href="img/9.png" />
<image preserveAspectRatio="none" x="422" y="440" width="101" height="101" xlink:href="img/10.png" />
<image preserveAspectRatio="none" x="463" y="438" width="87" height="104" xlink:href="img/11.png" />
<image preserveAspectRatio="none" x="422" y="512" width="101" height="101" xlink:href="img/12.png" />
<image preserveAspectRatio="none" x="463" y="510" width="87" height="104" xlink:href="img/13.png" />
<image preserveAspectRatio="none" x="422" y="584" width="101" height="100" xlink:href="img/14.png" />
<image preserveAspectRatio="none" x="463" y="582" width="87" height="104" xlink:href="img/15.png" />
<image preserveAspectRatio="none" x="422" y="655" width="101" height="101" xlink:href="img/16.png" />
<image preserveAspectRatio="none" x="463" y="654" width="87" height="104" xlink:href="img/17.png" />
<image preserveAspectRatio="none" x="422" y="727" width="101" height="101" xlink:href="img/18.png" />
<image preserveAspectRatio="none" x="463" y="726" width="87" height="104" xlink:href="img/19.png" />
<image preserveAspectRatio="none" x="422" y="799" width="101" height="101" xlink:href="img/20.png" />
<image preserveAspectRatio="none" x="463" y="798" width="87" height="103" xlink:href="img/21.png" />
<image preserveAspectRatio="none" x="422" y="871" width="101" height="101" xlink:href="img/22.png" />
<image preserveAspectRatio="none" x="463" y="869" width="87" height="104" xlink:href="img/23.png" />
<image preserveAspectRatio="none" x="44" y="18" width="463" height="144" xlink:href="img/24.png" />
<image preserveAspectRatio="none" x="84" y="34" width="380" height="111" xlink:href="img/25.png" />
<path d="M43.5,39L16,39" class="g4_9" />
<path d="M22.2,31.3L16,39" class="g4_9" />
<path d="M16,39l6.2,7.6" class="g4_9" />
</svg>