<?xml version="1.0" encoding="UTF-8" standalone="no"?>
<!DOCTYPE svg PUBLIC "-//W3C//DTD SVG 1.1//EN"
"http://www.w3.org/Graphics/SVG/1.1/DTD/svg11.dtd">
<svg viewBox="0 0 550 977" version="1.1" xmlns="http://www.w3.org/2000/svg" xmlns:xlink="http://www.w3.org/1999/xlink">
<defs>
<style type="text/css"><![CDATA[
.g1_4{
fill: #FFFFFF;
}
.g2_4{
fill: #121212;
}
.g3_4{
fill: none;
stroke: #707070;
stroke-width: 1.5277778;
stroke-linecap: butt;
stroke-linejoin: miter;
}
]]></style>
</defs>
<path d="M0,0L550,0l0,977.8l-550,0L0,0Z" class="g1_4" />
<path d="M0.8,0.8l548.4,0l0,976.2L0.8,977L0.8,0.8Z" class="g2_4" />
<path d="M0.8,0.8l548.4,0l0,976.2L0.8,977L0.8,0.8Z" class="g3_4" />
<image preserveAspectRatio="none" x="11" y="188" width="531" height="145" xlink:href="img/1.png" />
<image preserveAspectRatio="none" x="29" y="205" width="494" height="113" xlink:href="img/2.png" />
<image preserveAspectRatio="none" x="9" y="292" width="532" height="145" xlink:href="img/3.png" />
<image preserveAspectRatio="none" x="86" y="309" width="359" height="111" xlink:href="img/4.png" />
<image preserveAspectRatio="none" x="9" y="428" width="532" height="209" xlink:href="img/5.png" />
<image preserveAspectRatio="none" x="21" y="448" width="509" height="169" xlink:href="img/6.png" />
<image preserveAspectRatio="none" x="9" y="608" width="532" height="145" xlink:href="img/7.png" />
<image preserveAspectRatio="none" x="86" y="625" width="359" height="111" xlink:href="img/8.png" />
<image preserveAspectRatio="none" x="46" y="752" width="460" height="140" xlink:href="img/9.png" />
<image preserveAspectRatio="none" x="79" y="762" width="396" height="121" xlink:href="img/10.png" />
</svg>